<svg width="66" height="43" viewBox="0 0 66 43" fill="none" xmlns="http://www.w3.org/2000/svg">
<path d="M21.9358 42.8709C10.1183 42.8709 0.5 33.2526 0.5 21.4351C0.5 16.2151 2.40917 11.1884 5.865 7.27344C9.925 2.65761 15.7975 0.0234375 21.9358 0.0234375C24.425 0.0234375 26.455 2.05344 26.455 4.54261C26.455 7.03177 24.425 9.06177 21.9358 9.06177C18.3833 9.06177 14.9758 10.5843 12.6317 13.2668C10.6258 15.5384 9.53833 18.4384 9.53833 21.4593C9.53833 28.2984 15.0967 33.8568 21.9358 33.8568C28.775 33.8568 34.3333 28.2984 34.3333 21.4593C34.3333 18.9701 36.3633 16.9401 38.8525 16.9401C41.3417 16.9401 43.3717 18.9701 43.3717 21.4593C43.3717 33.2768 33.7533 42.8951 21.9358 42.8951V42.8709Z" fill="#FBB03B"/>
<path d="M44.3186 42.8717C41.8295 42.8717 39.7995 40.8417 39.7995 38.3525C39.7995 35.8633 41.8295 33.8333 44.3186 33.8333C51.1578 33.8333 56.7161 28.275 56.7161 21.4358C56.7161 14.5967 51.1578 9.03833 44.3186 9.03833C37.4795 9.03833 31.9211 14.5967 31.9211 21.4358C31.9211 23.925 29.8911 25.955 27.402 25.955C24.9128 25.955 22.8828 23.925 22.8828 21.4358C22.8828 9.61833 32.5011 0 44.3186 0C56.1361 0 65.7545 9.61833 65.7545 21.4358C65.7545 33.2533 56.1361 42.8717 44.3186 42.8717Z" fill="#FBB03B"/>
</svg>
